<?xml version="1.0" encoding="UTF-8" standalone="no" ?>
<!DOCTYPE svg PUBLIC "-//W3C//DTD SVG 1.1//EN" "http://www.w3.org/Graphics/SVG/1.1/DTD/svg11.dtd">
<svg xmlns="http://www.w3.org/2000/svg" xmlns:xlink="http://www.w3.org/1999/xlink" version="1.1" width="400" height="400" viewBox="0 0 400 400" xml:space="preserve">
<desc>Created with Fabric.js 3.6.2</desc>
<defs>
</defs>
<g transform="matrix(6.25 0 0 6.25 200 200)" id="Frame"  >
<rect style="stroke: none; stroke-width: 1; stroke-dasharray: none; stroke-linecap: butt; stroke-dashoffset: 0; stroke-linejoin: miter; stroke-miterlimit: 4; fill: none; fill-rule: nonzero; opacity: 1;"  x="-16" y="-16" rx="0" ry="0" width="32" height="32" />
</g>
<g transform="matrix(6.25 0 0 6.25 199.99 199.99)" id="Facebook-2"  >
<path style="stroke: none; stroke-width: 1; stroke-dasharray: none; stroke-linecap: butt; stroke-dashoffset: 0; stroke-linejoin: miter; stroke-miterlimit: 4; fill: rgb(255,168,6); fill-rule: nonzero; opacity: 1;"  transform=" translate(-16, -16)" d="M 16 2 A 13.72986 13.72986 0 0 0 2 16.07036 A 14.09717 14.09717 0 0 0 14 30 V 19.08544 H 10 V 15.06533 h 4 v -4.0201 a 3.67138 3.67138 0 0 1 4 -4.0201 h 4 v 4.0201 H 19.14 a 1.08021 1.08021 0 0 0 -1.14 1.005 v 3.01507 h 4 l -0.5 4.02011 H 18 V 30 A 14.05856 14.05856 0 0 0 30 16.07036 A 13.88074 13.88074 0 0 0 16 2 Z" stroke-linecap="round" />
</g>
</svg>